<?xml version="1.0" encoding="UTF-8" standalone="no"?>
<!DOCTYPE svg PUBLIC "-//W3C//DTD SVG 20010904//EN"
              "http://www.w3.org/TR/2001/REC-SVG-20010904/DTD/svg10.dtd">

<svg xmlns="http://www.w3.org/2000/svg"
     width="742" height="900"
     viewBox="0 0 742 900">
  <path id="657"
        fill="#fff" fill-opacity="0.1" stroke="#fff" stroke-width="1"
        d="M 663.88,57.38
           C 663.88,57.38 668.38,57.12 668.38,57.12
             668.38,57.12 680.75,29.50 680.75,29.50
             680.75,29.50 680.62,26.12 680.62,26.12
             680.62,26.12 670.12,40.00 670.12,40.00
             670.12,40.00 663.88,57.38 663.88,57.38 Z" />
  <path id="655"
        fill="#fff" fill-opacity="0.1" stroke="#fff" stroke-width="1"
        d="M 657.50,83.38
           C 657.50,83.38 654.00,79.38 654.00,79.38
             654.00,79.38 663.62,58.00 663.62,58.00
             663.62,58.00 668.12,57.50 668.12,57.50
             668.12,57.50 664.00,73.25 664.00,73.25
             664.00,73.25 657.50,83.38 657.50,83.38 Z" />
  <path id="653"
        fill="#fff" fill-opacity="0.1" stroke="#fff" stroke-width="1"
        d="M 652.88,79.62
           C 652.88,79.62 657.12,84.00 657.12,84.25
             657.12,84.50 623.62,111.88 623.62,111.88
             623.62,111.88 620.12,107.12 620.12,107.12
             620.12,107.12 652.88,79.62 652.88,79.62 Z" />
  <path id="649"
        fill="#fff" fill-opacity="0.1" stroke="#fff" stroke-width="1"
        d="M 575.25,120.75
           C 575.25,120.75 574.12,128.75 574.12,128.62
             574.12,128.50 589.88,132.75 589.88,132.75
             589.88,132.75 589.12,135.75 589.12,135.75
             589.12,135.75 583.88,138.25 583.88,138.25
             583.88,138.25 580.25,133.62 580.25,133.62
             580.25,133.62 580.38,140.00 580.38,140.00
             580.38,140.00 602.12,150.50 602.12,150.50
             602.12,150.50 601.62,145.62 601.62,145.62
             601.62,145.62 599.88,136.12 599.88,136.12
             599.88,136.12 601.25,131.88 601.25,131.88
             601.25,131.88 598.50,131.25 598.50,131.25
             598.50,131.25 602.50,125.62 602.50,125.62
             602.50,125.62 623.12,112.88 623.12,112.88
             623.12,112.88 619.12,107.75 619.12,107.75
             619.12,107.75 595.00,122.62 595.00,122.62
             595.00,122.62 586.38,124.12 586.25,124.12
             586.12,124.12 575.25,120.75 575.25,120.75 Z" />
  <path id="2"
        fill="#fff" fill-opacity="0.1" stroke="#fff" stroke-width="1"
        d="M 549.12,138.00
           C 549.12,138.00 542.88,124.62 542.88,124.62
             542.88,124.62 546.38,115.12 546.38,115.12
             546.38,115.12 540.75,112.75 540.75,112.75
             540.75,112.75 541.38,107.75 541.38,107.75
             541.38,107.75 551.88,107.75 551.88,107.75
             551.88,107.75 552.38,113.50 552.38,113.50
             552.38,113.50 553.75,115.88 553.75,115.88
             553.75,115.88 563.50,113.38 563.50,113.38
             563.50,113.38 574.50,120.00 574.50,120.00
             574.50,120.00 573.75,127.00 573.75,127.00
             573.75,127.00 567.25,127.75 567.25,127.75
             567.25,127.75 568.12,143.50 568.12,143.50
             568.12,143.50 560.75,144.62 560.75,144.62
             560.75,144.62 556.00,135.62 556.00,135.62
             556.00,135.62 555.88,130.50 555.88,130.25
             555.88,130.00 551.75,128.38 551.75,128.38
             551.75,128.38 549.12,138.00 549.12,138.00 Z" />
  <path id="3"
        fill="#fff" fill-opacity="0.1" stroke="#fff" stroke-width="1"
        d="M 542.12,125.50
           C 542.12,125.50 548.12,138.38 548.12,138.38
             548.12,138.38 533.25,145.62 533.25,145.62
             533.25,145.62 529.25,143.50 529.25,143.50
             529.25,143.50 510.38,144.25 510.38,144.25
             510.38,144.25 512.75,136.88 512.75,136.88
             512.75,136.88 523.75,135.88 523.75,135.88
             523.75,135.88 542.12,125.50 542.12,125.50 Z" />
  <path id="4"
        fill="#fff" fill-opacity="0.1" stroke="#fff" stroke-width="1"
        d="M 480.73,113.45
           C 480.73,113.45 482.00,137.09 482.00,137.09
             482.00,137.09 490.73,138.00 490.73,138.00
             490.73,138.00 509.64,144.55 509.64,144.55
             509.64,144.55 511.82,137.45 511.82,137.27
             511.82,137.09 498.91,132.00 498.91,132.00
             498.91,132.00 507.09,129.27 507.09,129.27
             507.09,129.27 506.73,118.36 506.73,118.36
             506.73,118.36 515.45,114.55 515.45,114.55
             515.45,114.55 507.09,107.45 507.09,107.45
             507.09,107.45 511.09,104.55 511.09,104.55
             511.09,104.55 505.45,100.55 505.45,100.55
             505.45,100.55 497.27,103.27 497.27,103.27
             497.27,103.27 486.00,106.18 486.00,106.18
             486.00,106.18 494.36,108.91 494.36,108.91
             494.36,108.91 485.64,114.73 485.64,114.73
             485.64,114.73 480.73,113.45 480.73,113.45 Z" />
  <path id="5"
        fill="#fff" fill-opacity="0.1" stroke="#fff" stroke-width="1"
        d="M 481.45,137.45
           C 481.45,137.45 479.27,114.73 479.27,114.73
             479.27,114.73 468.55,114.73 468.55,114.73
             468.55,114.73 467.82,109.64 467.82,109.64
             467.82,109.64 453.45,102.36 453.45,102.36
             453.45,102.36 450.36,106.18 450.36,106.18
             450.36,106.18 451.27,133.09 451.27,133.09
             451.27,133.09 456.18,131.27 456.18,131.27
             456.18,131.27 464.36,137.09 464.36,137.09
             464.36,137.09 481.45,137.45 481.45,137.45 Z" />
  <path id="6"
        fill="#fff" fill-opacity="0.1" stroke="#fff" stroke-width="1"
        d="M 403.09,133.64
           C 403.09,133.64 395.64,118.91 395.64,118.91
             395.64,118.91 424.91,105.64 424.91,105.64
             424.91,105.64 433.45,104.91 433.45,104.91
             433.45,104.91 434.00,113.82 434.00,113.82
             434.00,113.82 450.55,114.36 450.55,114.36
             450.55,114.36 449.82,134.36 449.82,134.36
             449.82,134.36 434.73,128.55 434.73,128.55
             434.73,128.55 413.27,134.36 413.27,134.36
             413.27,134.36 403.09,133.64 403.09,133.64 Z" />
  <path id="411"
        fill="#fff" fill-opacity="0.1" stroke="#fff" stroke-width="1"
        d="M 438.00,94.00
           C 438.00,94.00 460.36,80.36 460.36,80.36
             460.36,80.36 446.36,57.09 446.36,57.09
             446.36,57.09 409.45,63.27 409.45,63.27
             409.45,63.27 404.18,87.27 404.18,87.27
             404.18,87.27 388.73,103.82 388.73,103.82
             388.73,103.82 395.09,118.55 395.09,118.55
             395.09,118.55 423.82,104.36 423.82,104.36
             423.82,104.36 423.09,98.73 423.09,98.73
             423.09,98.73 428.55,97.09 428.55,97.09
             428.55,97.09 449.09,105.64 449.09,105.64
             449.09,105.64 452.73,101.82 452.73,101.82
             452.73,101.82 438.00,94.00 438.00,94.00 Z" />
  <path id="7"
        fill="#fff" fill-opacity="0.1" stroke="#fff" stroke-width="1"
        d="M 358.55,140.00
           C 358.55,140.00 366.18,148.73 366.18,148.73
             366.18,148.73 375.82,144.00 375.82,144.00
             375.82,144.00 387.64,143.27 387.64,143.27
             387.64,143.27 389.45,139.09 389.45,139.09
             389.45,139.09 400.18,137.45 400.18,137.45
             400.18,137.45 401.45,134.55 401.45,134.55
             401.45,134.55 387.45,104.55 387.45,104.55
             387.45,104.55 358.55,140.00 358.55,140.00 Z" />
  <path id="8"
        fill="#fff" fill-opacity="0.1" stroke="#fff" stroke-width="1"
        d="M 364.91,150.91
           C 364.91,150.91 358.91,157.09 358.91,157.09
             358.91,157.09 352.91,156.00 352.91,156.00
             352.91,156.00 349.09,161.45 349.09,161.45
             349.09,161.45 331.82,152.55 331.82,152.55
             331.82,152.55 342.55,140.91 342.55,140.91
             342.55,140.91 356.55,140.00 356.55,140.00
             356.55,140.00 364.91,150.91 364.91,150.91 Z" />
  <path id="9"
        fill="#fff" fill-opacity="0.1" stroke="#fff" stroke-width="1"
        d="M 315.33,134.00
           C 315.33,134.00 319.33,120.33 319.33,120.33
             319.33,120.33 341.00,140.33 341.33,140.33
             341.67,140.33 331.67,151.33 331.67,151.33
             331.67,151.33 326.67,141.00 326.67,141.00
             326.67,141.00 315.33,134.00 315.33,134.00 Z" />
  <path id="10"
        fill="#fff" fill-opacity="0.1" stroke="#fff" stroke-width="1"
        d="M 292.67,127.67
           C 292.67,127.67 293.33,120.67 293.33,120.67
             293.33,120.67 307.00,121.00 307.00,121.00
             307.00,121.00 314.00,128.67 314.00,128.67
             314.00,128.67 313.67,133.67 313.67,133.67
             313.67,133.67 292.67,127.67 292.67,127.67 Z" />
  <path id="11"
        fill="#fff" fill-opacity="0.1" stroke="#fff" stroke-width="1"
        d="M 260.67,144.00
           C 260.67,144.00 258.00,121.67 258.00,121.67
             258.00,121.67 272.67,118.33 272.67,118.33
             272.67,118.33 279.67,112.33 279.67,112.33
             279.67,112.33 282.33,117.00 282.33,117.00
             282.33,117.00 289.33,122.33 289.33,122.33
             289.33,122.33 289.67,128.33 289.67,128.33
             289.67,128.33 280.67,127.67 280.67,127.67
             280.67,127.67 260.67,144.00 260.67,144.00 Z" />
  <path id="12"
        fill="#fff" fill-opacity="0.1" stroke="#fff" stroke-width="1"
        d="M 259.33,145.67
           C 259.33,145.67 222.00,136.33 222.00,136.33
             222.00,136.33 209.33,141.33 209.33,141.33
             209.33,141.33 149.00,74.00 149.00,74.00
             149.00,74.00 171.00,56.00 171.00,56.00
             171.00,56.00 194.33,62.67 194.33,62.67
             194.33,62.67 237.33,88.67 237.33,88.67
             237.33,88.67 255.00,115.00 255.00,115.00
             255.00,115.00 259.33,145.67 259.33,145.67 Z" />
  <path id="12.5"
        fill="#fff" fill-opacity="0.1" stroke="#fff" stroke-width="1"
        d="M 221.00,139.00
           C 221.00,139.00 258.00,147.33 258.00,147.33
             258.00,147.33 240.33,171.00 240.33,171.00
             240.33,171.00 232.67,169.00 232.67,169.00
             232.67,169.00 210.67,143.33 210.67,143.33
             210.67,143.33 221.00,139.00 221.00,139.00 Z" />
  <path id="13"
        fill="#fff" fill-opacity="0.1" stroke="#fff" stroke-width="1"
        d="M 111.00,87.33
           C 111.00,87.33 108.33,83.33 108.33,83.33
             108.33,83.33 133.00,75.33 133.00,75.33
             133.00,75.33 134.67,76.67 134.67,76.67
             134.67,76.67 146.67,73.67 146.67,73.67
             146.67,73.67 230.67,170.00 230.67,170.00
             230.67,170.00 216.67,180.33 216.67,180.33
             216.67,180.33 111.67,122.33 111.67,122.33
             111.67,122.33 111.00,87.33 111.00,87.33 Z" />
  <path id="14"
        fill="#fff" fill-opacity="0.1" stroke="#fff" stroke-width="1"
        d="M 194.33,170.00
           C 194.33,170.00 110.67,124.33 110.67,124.33
             110.67,124.33 101.33,167.00 101.33,167.00
             101.33,167.00 107.00,167.67 107.00,167.67
             107.00,167.67 120.67,178.00 120.67,178.00
             120.67,178.00 128.33,176.33 128.33,176.33
             128.33,176.33 176.33,207.00 176.33,207.00
             176.33,207.00 184.33,202.33 184.33,202.33
             184.33,202.33 189.67,203.00 189.67,203.00
             189.67,203.00 199.67,191.00 199.67,191.00
             199.67,191.00 193.00,180.67 193.00,180.67
             193.00,180.67 194.33,170.00 194.33,170.00 Z" />
  <path id="15"
        fill="#fff" fill-opacity="0.1" stroke="#fff" stroke-width="1"
        d="M 115.33,230.33
           C 115.33,230.33 155.67,228.67 155.67,228.67
             155.67,228.67 150.67,213.33 150.67,213.33
             150.67,213.33 160.33,211.67 160.33,211.67
             160.33,211.67 167.00,219.00 167.00,219.00
             167.00,219.00 175.00,220.00 175.00,220.00
             175.00,220.00 174.33,208.00 174.33,208.00
             174.33,208.00 128.00,176.67 128.00,176.67
             128.00,176.67 137.67,193.00 137.67,193.00
             137.67,193.00 132.00,200.00 132.00,200.00
             132.00,200.00 124.33,195.00 124.33,195.00
             124.33,195.00 123.00,212.33 123.00,212.33
             123.00,212.33 104.00,214.00 104.00,214.00
             104.00,214.00 110.67,217.33 110.67,216.33
             110.67,215.33 115.33,230.33 115.33,230.33 Z" />
  <path id="16"
        fill="#fff" fill-opacity="0.1" stroke="#fff" stroke-width="1"
        d="M 138.33,273.00
           C 138.33,273.00 175.33,254.33 175.33,254.33
             175.33,254.33 165.67,243.33 165.67,243.33
             165.67,243.33 158.67,232.00 158.67,232.00
             158.67,232.00 97.67,236.00 97.67,236.00
             97.67,236.00 118.00,254.67 118.00,254.67
             118.00,254.67 120.33,264.67 120.33,264.67
             120.33,264.67 138.33,273.00 138.33,273.00 Z" />
  <path id="17"
        fill="#fff" fill-opacity="0.1" stroke="#fff" stroke-width="1"
        d="M 140.67,301.00
           C 140.67,301.00 150.67,294.00 150.67,294.00
             150.67,294.00 157.33,297.33 157.33,297.33
             157.33,297.33 204.67,263.67 204.67,263.67
             204.67,263.67 191.67,265.00 191.67,265.00
             191.67,265.00 178.33,257.33 178.33,257.33
             178.33,257.33 138.67,274.33 138.67,274.00
             138.67,273.67 146.00,285.67 146.00,285.67
             146.00,285.67 136.00,294.00 136.00,294.00
             136.00,294.00 140.67,301.00 140.67,301.00 Z" />
  <path id="18"
        fill="#fff" fill-opacity="0.1" stroke="#fff" stroke-width="1"
        d="M 158.33,330.00
           C 158.33,330.00 148.33,310.00 148.33,310.00
             148.33,310.00 158.00,310.00 158.00,310.00
             158.00,310.00 156.67,299.33 156.67,299.33
             156.67,299.33 215.33,262.00 215.33,262.00
             215.33,262.00 231.67,289.33 231.67,289.33
             231.67,289.33 158.33,330.00 158.33,330.00 Z" />
  <path id="19"
        fill="#fff" fill-opacity="0.1" stroke="#fff" stroke-width="1"
        d="M 98.00,288.73
           C 98.00,288.73 108.36,274.91 108.36,274.91
             108.36,274.91 133.64,295.09 133.64,295.09
             133.64,295.09 167.09,349.09 167.09,349.09
             167.09,349.09 128.18,353.27 128.18,353.27
             128.18,353.27 120.00,349.45 120.00,349.45
             120.00,349.45 114.00,353.09 114.00,353.09
             114.00,353.09 105.27,336.91 105.27,336.91
             105.27,336.91 121.09,329.45 121.09,329.45
             121.09,329.45 98.00,288.73 98.00,288.73 Z" />
  <path id="20"
        fill="#fff" fill-opacity="0.1" stroke="#fff" stroke-width="1"
        d="M 176.18,357.82
           C 176.18,357.82 238.73,321.45 238.73,321.45
             238.73,321.45 232.73,291.64 232.73,291.64
             232.73,291.64 158.36,333.09 158.36,333.09
             158.36,333.09 176.18,357.82 176.18,357.82 Z" />
  <path id="21"
        fill="#fff" fill-opacity="0.1" stroke="#fff" stroke-width="1"
        d="M 184.18,383.64
           C 184.18,383.64 218.00,368.91 218.00,368.91
             218.00,368.91 210.00,353.27 210.00,353.27
             210.00,353.27 222.91,346.91 222.91,346.91
             222.91,346.91 239.27,330.36 239.27,330.36
             239.27,330.36 234.91,324.73 234.91,324.73
             234.91,324.73 177.82,358.36 177.82,358.36
             177.82,358.36 184.18,383.64 184.18,383.64 Z" />
  <path id="22"
        fill="#fff" fill-opacity="0.1" stroke="#fff" stroke-width="1"
        d="M 188.91,404.18
           C 188.91,404.18 200.55,419.64 200.55,419.64
             200.55,419.64 237.09,381.27 237.09,381.27
             237.09,381.27 217.82,370.00 217.82,370.00
             217.82,370.00 184.55,385.45 184.55,385.45
             184.55,385.45 188.91,404.18 188.91,404.18 Z" />
  <path id="23"
        fill="#fff" fill-opacity="0.1" stroke="#fff" stroke-width="1"
        d="M 182.00,465.75
           C 182.00,465.75 177.75,444.75 177.75,444.75
             177.75,444.75 239.50,381.75 239.50,381.75
             239.50,381.75 258.25,390.25 258.25,390.25
             258.25,390.25 182.00,465.75 182.00,465.75 Z" />
  <path id="24"
        fill="#fff" fill-opacity="0.1" stroke="#fff" stroke-width="1"
        d="M 188.00,487.50
           C 188.00,487.50 275.50,402.00 275.50,402.00
             275.50,402.00 260.00,391.00 260.00,391.00
             260.00,391.00 181.50,469.25 181.50,469.25
             181.50,469.25 188.00,487.50 188.00,487.50 Z" />
  <path id="25"
        fill="#fff" fill-opacity="0.1" stroke="#fff" stroke-width="1"
        d="M 203.00,521.50
           C 203.00,521.50 275.50,429.00 275.50,429.00
             275.50,429.00 266.75,411.50 266.75,411.50
             266.75,411.50 182.50,496.25 182.50,496.25
             182.50,496.25 203.00,521.50 203.00,521.50 Z" />
  <path id="26"
        fill="#fff" fill-opacity="0.1" stroke="#fff" stroke-width="1"
        d="M 210.55,540.18
           C 210.55,540.18 196.73,532.73 196.73,532.73
             196.73,532.73 277.82,429.82 277.82,429.82
             277.82,429.82 298.73,447.45 298.73,447.45
             298.73,447.45 210.55,540.18 210.55,540.18 Z" />
  <path id="27"
        fill="#fff" fill-opacity="0.1" stroke="#fff" stroke-width="1"
        d="M 238.18,542.55
           C 238.18,542.55 329.82,466.73 329.82,466.73
             329.82,466.73 300.73,446.73 300.73,446.73
             300.73,446.73 210.36,541.27 210.36,541.27
             210.36,541.27 238.18,542.55 238.18,542.55 Z" />
  <path id="28.5"
        fill="#fff" fill-opacity="0.1" stroke="#fff" stroke-width="1"
        d="M 278.55,540.36
           C 278.55,540.36 305.09,544.18 305.09,544.18
             305.09,544.18 343.27,519.27 343.27,519.27
             343.27,519.27 336.91,480.36 336.91,480.36
             336.91,480.36 282.55,519.64 282.55,519.64
             282.55,519.64 278.55,540.36 278.55,540.36 Z" />
  <path id="28"
        fill="#fff" fill-opacity="0.1" stroke="#fff" stroke-width="1"
        d="M 242.00,541.64
           C 242.00,541.64 244.18,557.45 244.18,557.45
             244.18,557.45 256.18,557.09 256.18,557.09
             256.18,557.09 277.27,541.09 277.27,541.09
             277.27,541.09 281.09,518.55 281.09,518.55
             281.09,518.55 336.36,476.36 336.36,476.36
             336.36,476.36 330.55,467.82 330.55,467.82
             330.55,467.82 242.00,541.64 242.00,541.64 Z" />
  <path id="29"
        fill="#fff" fill-opacity="0.1" stroke="#fff" stroke-width="1"
        d="M 257.82,557.09
           C 257.82,557.09 277.45,542.18 277.45,542.18
             277.45,542.18 303.27,545.64 303.27,545.64
             303.27,545.64 276.18,564.00 276.18,564.00
             276.18,564.00 257.82,557.09 257.82,557.09 Z" />
  <path id="29.5"
        fill="#fff" fill-opacity="0.1" stroke="#fff" stroke-width="1"
        d="M 291.09,578.91
           C 291.09,578.91 347.45,536.18 347.45,536.18
             347.45,536.18 345.27,520.00 345.27,520.00
             345.27,520.00 276.91,565.09 276.91,565.09
             276.91,565.09 291.09,578.91 291.09,578.91 Z" />
  <path id="30"
        fill="#fff" fill-opacity="0.1" stroke="#fff" stroke-width="1"
        d="M 347.00,539.00
           C 347.00,539.00 292.00,580.00 292.00,580.00
             294.44,583.12 296.97,585.79 301.00,586.70
             303.90,587.36 307.10,586.49 309.91,588.02
             313.28,589.87 314.59,593.68 316.00,597.00
             316.00,597.00 356.00,565.00 356.00,565.00
             356.00,565.00 348.81,551.00 348.81,551.00
             348.81,551.00 347.00,539.00 347.00,539.00 Z" />
  <path id="31"
        fill="#fff" fill-opacity="0.1" stroke="#fff" stroke-width="1"
        d="M 315.00,600.00
           C 317.51,603.51 325.91,613.22 330.00,614.04
             333.53,614.74 337.47,610.68 340.00,608.59
             340.00,608.59 359.00,592.75 359.00,592.75
             361.07,591.03 365.88,587.50 366.56,584.96
             367.19,582.62 365.38,579.97 364.28,578.00
             364.28,578.00 357.00,565.00 357.00,565.00
             357.00,565.00 342.00,576.85 342.00,576.85
             342.00,576.85 315.00,600.00 315.00,600.00 Z" />
  <path id="32"
        fill="#fff" fill-opacity="0.1" stroke="#fff" stroke-width="1"
        d="M 331.00,616.00
           C 331.00,616.00 336.00,625.00 336.00,625.00
             342.67,623.57 340.90,623.08 346.04,620.78
             357.28,615.77 355.16,618.75 364.42,608.00
             366.26,605.86 369.51,602.66 370.23,600.00
             370.23,600.00 369.00,586.00 369.00,586.00
             369.00,586.00 331.00,616.00 331.00,616.00 Z" />
  <path id="33"
        fill="#fff" fill-opacity="0.1" stroke="#fff" stroke-width="1"
        d="M 364.00,629.00
           C 367.05,627.25 376.54,621.25 377.10,617.83
             377.46,615.66 375.34,612.92 374.42,611.00
             372.95,607.93 372.47,605.32 372.00,602.00
             368.17,603.85 357.68,613.66 358.01,618.00
             358.20,620.45 362.51,626.73 364.00,629.00 Z" />
  <path id="34"
        fill="#fff" fill-opacity="0.1" stroke="#fff" stroke-width="1"
        d="M 371.00,652.00
           C 371.00,652.00 373.00,652.00 373.00,652.00
             373.00,652.00 399.00,622.00 399.00,622.00
             394.37,619.62 394.24,619.72 392.00,615.00
             387.35,616.47 375.69,622.91 371.00,625.58
             369.00,626.71 365.53,628.22 364.58,630.39
             363.87,632.04 364.34,634.28 364.58,636.00
             365.78,644.64 366.14,644.68 371.00,652.00 Z" />
  <path id="35"
        fill="#fff" fill-opacity="0.1" stroke="#fff" stroke-width="1"
        d="M 373.00,652.00
           C 375.13,654.44 379.46,658.43 383.00,657.99
             386.07,657.61 390.61,652.33 393.00,650.17
             399.96,643.88 409.62,635.51 415.00,628.00
             412.11,626.50 403.99,622.16 401.00,622.81
             398.08,623.44 394.14,627.86 392.00,630.00
             392.00,630.00 373.00,652.00 373.00,652.00 Z" />
  <path id="36"
        fill="#fff" fill-opacity="0.1" stroke="#fff" stroke-width="1"
        d="M 384.00,661.00
           C 386.36,662.01 390.59,664.24 393.00,664.22
             396.18,664.19 401.18,660.67 404.00,659.01
             413.17,653.62 414.55,654.23 420.67,645.00
             422.98,641.51 423.99,640.12 425.00,636.00
             422.88,634.49 418.31,630.19 416.00,630.20
             413.14,630.20 408.98,635.04 407.00,637.00
             400.30,643.60 387.84,652.87 384.00,661.00 Z" />
</svg>
